<svg height="512pt" viewBox="0 0 512 512" width="512pt" xmlns="http://www.w3.org/2000/svg"><path d="m375 0h-330c-24.851562 0-45 20.148438-45 45v360c0 24.851562 20.148438 45 45 45h300c41.421875 0 75-33.578125 75-75v-330c0-24.851562-20.148438-45-45-45zm0 0" fill="#3aaaff"/><path d="m420 45v330c0 41.421875-33.578125 75-75 75h-135v-450h165c24.851562 0 45 20.148438 45 45zm0 0" fill="#0095ff"/><path d="m313.289062 132.484375c-8.050781-42.9375-48.203124-72.484375-91.890624-72.484375h-101.398438c-8.285156 0-15 6.714844-15 15v300c0 8.285156 6.714844 15 15 15h30c8.285156 0 15-6.714844 15-15v-135h60c55.34375 0 99.054688-50.117188 88.289062-107.515625zm-58.289062 17.515625c0 16.5-13.5 30-30 30h-60v-60h60c16.5 0 30 13.5 30 30zm0 0" fill="#e2e2e7"/><path d="m225 240h-15v-60h15c16.5 0 30-13.5 30-30s-13.5-30-30-30h-15v-60h11.398438c43.6875 0 83.839843 29.546875 91.890624 72.484375 10.765626 57.398437-32.945312 107.515625-88.289062 107.515625zm0 0" fill="#d3d3d8"/><path d="m495.546875 358.027344c12.40625 81.125-56.386719 149.921875-137.511719 137.519531-50.546875-7.726563-91.855468-49.039063-99.582031-99.585937-12.398437-81.117188 56.386719-149.902344 137.503906-137.511719 50.546875 7.726562 91.859375 49.035156 99.589844 99.578125zm0 0" fill="#fdbf00"/><path d="m497 377c0 66.300781-53.699219 120-120 120v-240c66.300781 0 120 53.699219 120 120zm0 0" fill="#ff9f00"/><path d="m413.675781 246.871094c-102.523437-27.269532-194.070312 64.269531-166.808593 166.796875 11.980468 45.042969 48.40625 81.472656 93.449218 93.457031 102.527344 27.277344 194.085938-64.273438 166.8125-166.804688-11.984375-45.042968-48.410156-81.46875-93.453125-93.449218zm-36.675781 175.128906c-8.402344 0-15-6.601562-15-15 0-8.402344-6.597656-15-15-15s-15 6.597656-15 15c0 19.5 12.597656 36 30 42.300781v31.199219c-50.699219-7.5-90-50.699219-90-103.5s39.300781-96 90-103.5v31.199219c-17.402344 6.300781-30 22.800781-30 42.300781 0 24.898438 20.097656 45 45 45 8.402344 0 15 6.597656 15 15 0 8.398438-6.597656 15-15 15zm15 58.5v-31.199219c17.402344-6.300781 30-22.800781 30-42.300781 0-24.902344-20.097656-45-45-45-8.402344 0-15-6.601562-15-15 0-8.402344 6.597656-15 15-15s15 6.597656 15 15c0 8.398438 6.597656 15 15 15s15-6.601562 15-15c0-19.5-12.597656-36-30-42.300781v-31.199219c50.699219 7.5 90 50.699219 90 103.5s-39.300781 96-90 103.5zm0 0" fill="#ffe470"/><path d="m512 377c0 74.398438-60.601562 135-135 135v-90c8.402344 0 15-6.601562 15-15 0-8.402344-6.597656-15-15-15v-30c24.902344 0 45 20.097656 45 45 0 19.5-12.597656 36-30 42.300781v31.199219c50.699219-7.5 90-50.699219 90-103.5s-39.300781-96-90-103.5v31.199219c17.402344 6.300781 30 22.800781 30 42.300781 0 8.398438-6.597656 15-15 15s-15-6.601562-15-15c0-8.402344-6.597656-15-15-15v-90c74.398438 0 135 60.597656 135 135zm0 0" fill="#ffd400"/></svg>